<svg xmlns="http://www.w3.org/2000/svg" xmlns:xlink="http://www.w3.org/1999/xlink" width="500" zoomAndPan="magnify" viewBox="0 0 375 374.999991" height="500" preserveAspectRatio="xMidYMid meet" version="1.0"><defs><g/><clipPath id="1b63363be0"><path d="M 145 124.050781 L 147 124.050781 L 147 146 L 145 146 Z M 145 124.050781 " clip-rule="nonzero"/></clipPath><clipPath id="3691954441"><path d="M 145 229 L 147 229 L 147 250.800781 L 145 250.800781 Z M 145 229 " clip-rule="nonzero"/></clipPath><clipPath id="a78bfebc0a"><path d="M 83.132812 187 L 105 187 L 105 188 L 83.132812 188 Z M 83.132812 187 " clip-rule="nonzero"/></clipPath><clipPath id="60b7be180d"><path d="M 175 142 L 191.132812 142 L 191.132812 159 L 175 159 Z M 175 142 " clip-rule="nonzero"/></clipPath><clipPath id="86d67cb77f"><path d="M 175 216 L 191.132812 216 L 191.132812 233 L 175 233 Z M 175 216 " clip-rule="nonzero"/></clipPath></defs><g clip-path="url(#1b63363be0)"><path fill="#ffffff" d="M 146.257812 145.777344 C 146.371094 145.777344 146.46875 145.738281 146.546875 145.65625 C 146.628906 145.578125 146.667969 145.480469 146.667969 145.367188 L 146.667969 124.652344 C 146.667969 124.542969 146.625 124.445312 146.546875 124.367188 C 146.46875 124.285156 146.371094 124.246094 146.257812 124.246094 C 146.144531 124.246094 146.050781 124.285156 145.96875 124.367188 C 145.890625 124.445312 145.847656 124.542969 145.847656 124.652344 L 145.847656 145.367188 C 145.847656 145.480469 145.886719 145.578125 145.96875 145.65625 C 146.046875 145.738281 146.144531 145.777344 146.257812 145.777344 Z M 146.257812 145.777344 " fill-opacity="1" fill-rule="nonzero"/></g><g clip-path="url(#3691954441)"><path fill="#ffffff" d="M 146.285156 229.109375 C 146.171875 229.109375 146.078125 229.152344 145.996094 229.230469 C 145.917969 229.308594 145.878906 229.40625 145.875 229.519531 L 145.875 250.277344 C 145.867188 250.394531 145.902344 250.5 145.984375 250.585938 C 146.066406 250.675781 146.164062 250.71875 146.285156 250.71875 C 146.402344 250.71875 146.503906 250.675781 146.585938 250.585938 C 146.664062 250.5 146.703125 250.394531 146.691406 250.277344 L 146.691406 229.519531 C 146.691406 229.40625 146.652344 229.3125 146.574219 229.230469 C 146.492188 229.152344 146.398438 229.109375 146.285156 229.109375 Z M 146.285156 229.109375 " fill-opacity="1" fill-rule="nonzero"/></g><g clip-path="url(#a78bfebc0a)"><path fill="#ffffff" d="M 83.464844 187.898438 L 104.199219 187.898438 C 104.316406 187.90625 104.417969 187.871094 104.507812 187.792969 C 104.59375 187.710938 104.640625 187.609375 104.640625 187.492188 C 104.640625 187.371094 104.59375 187.269531 104.507812 187.191406 C 104.417969 187.109375 104.316406 187.074219 104.199219 187.082031 L 83.464844 187.082031 C 83.351562 187.082031 83.253906 187.121094 83.171875 187.203125 C 83.09375 187.28125 83.054688 187.378906 83.054688 187.492188 C 83.054688 187.605469 83.09375 187.703125 83.171875 187.78125 C 83.253906 187.859375 83.351562 187.902344 83.464844 187.902344 Z M 83.464844 187.898438 " fill-opacity="1" fill-rule="nonzero"/></g><g clip-path="url(#60b7be180d)"><path fill="#ffffff" d="M 175.558594 157.757812 C 175.558594 157.9375 175.644531 158.0625 175.8125 158.132812 C 175.980469 158.203125 176.128906 158.171875 176.257812 158.042969 L 190.957031 143.324219 C 191.085938 143.195312 191.113281 143.046875 191.046875 142.878906 C 190.976562 142.714844 190.851562 142.628906 190.671875 142.628906 C 190.558594 142.628906 190.460938 142.667969 190.382812 142.746094 L 175.675781 157.472656 C 175.597656 157.550781 175.558594 157.644531 175.558594 157.757812 Z M 175.558594 157.757812 " fill-opacity="1" fill-rule="nonzero"/></g><path fill="#ffffff" d="M 116.882812 216.875 C 116.804688 216.796875 116.707031 216.757812 116.597656 216.757812 C 116.484375 216.757812 116.386719 216.796875 116.308594 216.875 L 101.585938 231.605469 C 101.5 231.683594 101.457031 231.78125 101.457031 231.898438 C 101.457031 232.011719 101.496094 232.113281 101.578125 232.191406 C 101.660156 232.273438 101.757812 232.316406 101.871094 232.3125 C 101.988281 232.3125 102.085938 232.269531 102.164062 232.183594 L 116.882812 217.453125 C 116.964844 217.375 117.003906 217.277344 117.003906 217.164062 C 117.003906 217.050781 116.964844 216.957031 116.882812 216.875 Z M 116.882812 216.875 " fill-opacity="1" fill-rule="nonzero"/><g clip-path="url(#86d67cb77f)"><path fill="#ffffff" d="M 176.25 216.835938 C 176.171875 216.746094 176.070312 216.699219 175.953125 216.695312 C 175.835938 216.691406 175.734375 216.730469 175.648438 216.816406 C 175.566406 216.898438 175.527344 217 175.53125 217.121094 C 175.535156 217.238281 175.582031 217.335938 175.671875 217.414062 L 190.410156 232.15625 C 190.492188 232.234375 190.585938 232.269531 190.695312 232.269531 C 190.808594 232.265625 190.902344 232.226562 190.980469 232.148438 C 191.058594 232.070312 191.097656 231.976562 191.101562 231.863281 C 191.101562 231.753906 191.0625 231.660156 190.988281 231.578125 Z M 176.25 216.835938 " fill-opacity="1" fill-rule="nonzero"/></g><path fill="#ffffff" d="M 116.21875 158.015625 C 116.347656 158.140625 116.496094 158.171875 116.664062 158.101562 C 116.832031 158.03125 116.917969 157.90625 116.917969 157.722656 C 116.917969 157.613281 116.875 157.515625 116.796875 157.4375 L 102.144531 142.785156 C 102.070312 142.695312 101.96875 142.648438 101.851562 142.644531 C 101.734375 142.640625 101.632812 142.679688 101.546875 142.765625 C 101.464844 142.847656 101.425781 142.949219 101.429688 143.066406 C 101.433594 143.1875 101.480469 143.285156 101.570312 143.363281 Z M 116.21875 158.015625 " fill-opacity="1" fill-rule="nonzero"/><path fill="#ffffff" d="M 107.644531 203.296875 C 107.671875 203.230469 107.683594 203.167969 107.675781 203.097656 C 107.667969 203.03125 107.648438 202.96875 107.609375 202.910156 C 107.570312 202.851562 107.523438 202.808594 107.460938 202.773438 C 107.402344 202.742188 107.339844 202.726562 107.269531 202.722656 C 107.21875 202.722656 107.167969 202.734375 107.117188 202.753906 L 87.839844 210.496094 C 87.742188 210.542969 87.675781 210.617188 87.636719 210.71875 C 87.597656 210.816406 87.597656 210.917969 87.636719 211.015625 C 87.679688 211.117188 87.746094 211.1875 87.84375 211.234375 C 87.941406 211.28125 88.039062 211.289062 88.140625 211.253906 L 107.421875 203.511719 C 107.523438 203.46875 107.601562 203.398438 107.644531 203.296875 Z M 107.644531 203.296875 " fill-opacity="1" fill-rule="nonzero"/><path fill="#ffffff" d="M 169.300781 245.902344 C 169.34375 246.007812 169.414062 246.082031 169.519531 246.128906 C 169.625 246.171875 169.726562 246.171875 169.832031 246.132812 C 169.9375 246.089844 170.011719 246.019531 170.058594 245.914062 C 170.101562 245.808594 170.101562 245.707031 170.058594 245.601562 L 162.308594 226.304688 C 162.238281 226.136719 162.113281 226.054688 161.929688 226.054688 C 161.878906 226.054688 161.824219 226.0625 161.777344 226.082031 C 161.671875 226.125 161.597656 226.195312 161.554688 226.300781 C 161.511719 226.40625 161.511719 226.511719 161.554688 226.613281 Z M 169.300781 245.902344 " fill-opacity="1" fill-rule="nonzero"/><path fill="#ffffff" d="M 130.203125 148.5625 C 130.25 148.660156 130.324219 148.730469 130.425781 148.769531 C 130.527344 148.808594 130.628906 148.808594 130.726562 148.765625 C 130.828125 148.726562 130.902344 148.65625 130.945312 148.558594 C 130.992188 148.460938 130.996094 148.359375 130.960938 148.253906 L 123.238281 129.035156 C 123.191406 128.9375 123.117188 128.871094 123.019531 128.832031 C 122.917969 128.792969 122.820312 128.792969 122.71875 128.835938 C 122.621094 128.875 122.546875 128.941406 122.503906 129.039062 C 122.457031 129.136719 122.449219 129.234375 122.480469 129.335938 Z M 130.203125 148.5625 " fill-opacity="1" fill-rule="nonzero"/><path fill="#ffffff" d="M 88.347656 163.183594 L 107.402344 171.320312 C 107.503906 171.363281 107.609375 171.363281 107.714844 171.320312 C 107.816406 171.277344 107.890625 171.207031 107.9375 171.101562 C 107.980469 171 107.980469 170.894531 107.9375 170.792969 C 107.894531 170.6875 107.824219 170.609375 107.71875 170.566406 L 88.667969 162.433594 C 88.613281 162.410156 88.5625 162.402344 88.503906 162.398438 C 88.324219 162.402344 88.199219 162.484375 88.128906 162.652344 C 88.085938 162.757812 88.085938 162.859375 88.128906 162.964844 C 88.171875 163.066406 88.246094 163.140625 88.347656 163.183594 Z M 88.347656 163.183594 " fill-opacity="1" fill-rule="nonzero"/><path fill="#ffffff" d="M 129.910156 225.800781 C 129.855469 225.78125 129.804688 225.769531 129.746094 225.769531 C 129.566406 225.769531 129.441406 225.851562 129.371094 226.019531 L 121.238281 245.074219 C 121.191406 245.179688 121.191406 245.28125 121.234375 245.386719 C 121.273438 245.492188 121.347656 245.566406 121.449219 245.609375 C 121.554688 245.65625 121.660156 245.65625 121.765625 245.609375 C 121.871094 245.570312 121.941406 245.496094 121.988281 245.390625 L 130.125 226.339844 C 130.167969 226.234375 130.167969 226.128906 130.125 226.027344 C 130.085938 225.921875 130.011719 225.847656 129.910156 225.800781 Z M 129.910156 225.800781 " fill-opacity="1" fill-rule="nonzero"/><path fill="#ffffff" d="M 162.628906 149.15625 C 162.730469 149.199219 162.835938 149.203125 162.941406 149.160156 C 163.042969 149.117188 163.121094 149.046875 163.164062 148.941406 L 171.308594 129.867188 C 171.351562 129.761719 171.351562 129.65625 171.308594 129.550781 C 171.265625 129.449219 171.191406 129.375 171.085938 129.328125 C 171.035156 129.308594 170.984375 129.296875 170.929688 129.296875 C 170.746094 129.296875 170.621094 129.382812 170.550781 129.550781 L 162.414062 148.628906 C 162.371094 148.730469 162.371094 148.835938 162.414062 148.9375 C 162.453125 149.039062 162.527344 149.113281 162.628906 149.15625 Z M 162.628906 149.15625 " fill-opacity="1" fill-rule="nonzero"/><path fill="#ffffff" d="M 154.382812 146.609375 C 154.492188 146.628906 154.59375 146.609375 154.683594 146.546875 C 154.78125 146.488281 154.839844 146.40625 154.863281 146.296875 L 156.910156 135.96875 C 156.933594 135.855469 156.914062 135.753906 156.851562 135.660156 C 156.769531 135.539062 156.65625 135.480469 156.511719 135.480469 C 156.289062 135.480469 156.152344 135.589844 156.109375 135.808594 L 154.0625 146.136719 C 154.039062 146.246094 154.058594 146.347656 154.121094 146.441406 C 154.1875 146.53125 154.273438 146.589844 154.382812 146.609375 Z M 154.382812 146.609375 " fill-opacity="1" fill-rule="nonzero"/><path fill="#ffffff" d="M 135.921875 239.621094 C 136.03125 239.644531 136.132812 239.621094 136.226562 239.558594 C 136.320312 239.496094 136.378906 239.410156 136.402344 239.300781 L 138.484375 228.800781 C 138.507812 228.691406 138.488281 228.589844 138.425781 228.496094 C 138.363281 228.402344 138.28125 228.34375 138.171875 228.320312 C 138.144531 228.320312 138.117188 228.320312 138.089844 228.320312 C 137.867188 228.324219 137.734375 228.433594 137.691406 228.652344 L 135.609375 239.148438 C 135.589844 239.257812 135.609375 239.355469 135.667969 239.449219 C 135.730469 239.539062 135.8125 239.597656 135.921875 239.621094 Z M 135.921875 239.621094 " fill-opacity="1" fill-rule="nonzero"/><path fill="#ffffff" d="M 105.199219 179.617188 C 105.292969 179.554688 105.351562 179.46875 105.378906 179.363281 C 105.398438 179.253906 105.378906 179.152344 105.316406 179.058594 C 105.257812 178.964844 105.171875 178.90625 105.0625 178.882812 L 94.738281 176.835938 C 94.710938 176.832031 94.683594 176.832031 94.65625 176.835938 C 94.433594 176.835938 94.300781 176.945312 94.257812 177.164062 C 94.234375 177.277344 94.253906 177.378906 94.316406 177.472656 C 94.378906 177.5625 94.460938 177.621094 94.570312 177.644531 L 104.894531 179.695312 C 105.007812 179.710938 105.109375 179.6875 105.199219 179.617188 Z M 105.199219 179.617188 " fill-opacity="1" fill-rule="nonzero"/><path fill="#ffffff" d="M 102.097656 217.015625 C 102.160156 217.109375 102.246094 217.167969 102.355469 217.1875 C 102.464844 217.210938 102.566406 217.1875 102.660156 217.125 L 111.585938 211.160156 C 111.675781 211.097656 111.734375 211.011719 111.757812 210.902344 C 111.777344 210.789062 111.757812 210.6875 111.695312 210.59375 C 111.632812 210.5 111.546875 210.441406 111.4375 210.417969 C 111.324219 210.398438 111.222656 210.417969 111.128906 210.480469 L 102.207031 216.449219 C 102.113281 216.511719 102.054688 216.597656 102.035156 216.707031 C 102.011719 216.820312 102.03125 216.921875 102.097656 217.015625 Z M 102.097656 217.015625 " fill-opacity="1" fill-rule="nonzero"/><path fill="#ffffff" d="M 169.964844 222.160156 C 169.863281 222.007812 169.722656 221.949219 169.542969 221.984375 C 169.367188 222.019531 169.257812 222.128906 169.222656 222.304688 C 169.199219 222.414062 169.222656 222.519531 169.285156 222.613281 L 175.304688 231.617188 C 175.371094 231.707031 175.457031 231.761719 175.566406 231.777344 C 175.671875 231.796875 175.773438 231.777344 175.863281 231.714844 C 175.953125 231.65625 176.011719 231.570312 176.035156 231.464844 C 176.058594 231.359375 176.042969 231.257812 175.984375 231.164062 Z M 169.964844 222.160156 " fill-opacity="1" fill-rule="nonzero"/><path fill="#ffffff" d="M 122.523438 152.695312 C 122.585938 152.789062 122.671875 152.847656 122.785156 152.867188 C 122.894531 152.890625 122.996094 152.871094 123.089844 152.808594 C 123.183594 152.746094 123.242188 152.664062 123.265625 152.554688 C 123.285156 152.445312 123.265625 152.34375 123.203125 152.25 L 117.320312 143.449219 C 117.21875 143.304688 117.082031 143.246094 116.910156 143.277344 C 116.738281 143.308594 116.628906 143.40625 116.585938 143.578125 C 116.5625 143.6875 116.585938 143.789062 116.644531 143.882812 Z M 122.523438 152.695312 " fill-opacity="1" fill-rule="nonzero"/><path fill="#ffffff" d="M 94.085938 197.269531 C 94.105469 197.382812 94.164062 197.46875 94.257812 197.53125 C 94.351562 197.59375 94.453125 197.617188 94.5625 197.597656 L 105.019531 195.632812 C 105.121094 195.613281 105.203125 195.5625 105.269531 195.476562 C 105.332031 195.394531 105.355469 195.300781 105.347656 195.195312 C 105.339844 195.089844 105.296875 195.003906 105.21875 194.929688 C 105.140625 194.859375 105.050781 194.824219 104.945312 194.824219 L 104.871094 194.824219 L 94.410156 196.785156 C 94.300781 196.808594 94.210938 196.867188 94.148438 196.960938 C 94.085938 197.054688 94.0625 197.160156 94.085938 197.269531 Z M 94.085938 197.269531 " fill-opacity="1" fill-rule="nonzero"/><path fill="#ffffff" d="M 155.589844 239.289062 C 155.617188 239.394531 155.675781 239.476562 155.765625 239.535156 C 155.855469 239.59375 155.953125 239.613281 156.0625 239.59375 C 156.167969 239.570312 156.253906 239.519531 156.316406 239.429688 C 156.382812 239.34375 156.40625 239.246094 156.394531 239.140625 L 154.429688 228.683594 C 154.386719 228.460938 154.253906 228.351562 154.027344 228.351562 C 154.003906 228.347656 153.976562 228.347656 153.953125 228.351562 C 153.839844 228.371094 153.753906 228.425781 153.691406 228.519531 C 153.625 228.613281 153.605469 228.714844 153.625 228.824219 Z M 155.589844 239.289062 " fill-opacity="1" fill-rule="nonzero"/><path fill="#ffffff" d="M 138.109375 146.21875 C 138.125 146.335938 138.179688 146.425781 138.273438 146.496094 C 138.371094 146.5625 138.476562 146.585938 138.589844 146.566406 C 138.703125 146.542969 138.792969 146.484375 138.859375 146.386719 C 138.921875 146.289062 138.9375 146.183594 138.910156 146.066406 L 136.953125 135.640625 C 136.910156 135.417969 136.777344 135.308594 136.550781 135.308594 C 136.527344 135.304688 136.5 135.304688 136.476562 135.308594 C 136.367188 135.328125 136.277344 135.382812 136.214844 135.476562 C 136.152344 135.570312 136.128906 135.671875 136.152344 135.78125 Z M 138.109375 146.21875 " fill-opacity="1" fill-rule="nonzero"/><path fill="#ffffff" d="M 111.859375 163.9375 C 111.921875 163.84375 111.945312 163.742188 111.921875 163.632812 C 111.898438 163.523438 111.84375 163.441406 111.75 163.378906 L 103.0625 157.4375 C 102.96875 157.371094 102.867188 157.351562 102.753906 157.371094 C 102.644531 157.394531 102.558594 157.449219 102.496094 157.542969 C 102.429688 157.636719 102.40625 157.738281 102.429688 157.851562 C 102.453125 157.957031 102.507812 158.042969 102.601562 158.101562 L 111.28125 164.039062 C 111.375 164.109375 111.476562 164.132812 111.589844 164.113281 C 111.707031 164.09375 111.792969 164.035156 111.859375 163.9375 Z M 111.859375 163.9375 " fill-opacity="1" fill-rule="nonzero"/><path fill="#ffffff" d="M 122.769531 221.84375 C 122.675781 221.78125 122.574219 221.757812 122.464844 221.777344 C 122.351562 221.800781 122.265625 221.855469 122.203125 221.949219 L 116.167969 230.773438 C 116.121094 230.863281 116.105469 230.960938 116.132812 231.0625 C 116.15625 231.164062 116.210938 231.242188 116.296875 231.304688 C 116.382812 231.363281 116.476562 231.386719 116.582031 231.371094 C 116.683594 231.359375 116.769531 231.3125 116.839844 231.234375 L 122.875 222.410156 C 122.941406 222.316406 122.960938 222.214844 122.941406 222.105469 C 122.921875 221.992188 122.863281 221.90625 122.769531 221.84375 Z M 122.769531 221.84375 " fill-opacity="1" fill-rule="nonzero"/><path fill="#ffffff" d="M 169.609375 152.828125 C 169.632812 152.933594 169.6875 153.019531 169.777344 153.082031 C 169.871094 153.144531 169.972656 153.164062 170.085938 153.144531 C 170.195312 153.125 170.28125 153.066406 170.347656 152.976562 L 176.375 144.160156 C 176.4375 144.066406 176.460938 143.964844 176.4375 143.851562 C 176.417969 143.742188 176.359375 143.65625 176.265625 143.59375 C 176.195312 143.542969 176.121094 143.519531 176.035156 143.519531 C 175.894531 143.519531 175.78125 143.578125 175.699219 143.699219 L 169.671875 152.511719 C 169.605469 152.609375 169.585938 152.714844 169.609375 152.828125 Z M 169.609375 152.828125 " fill-opacity="1" fill-rule="nonzero"/><g fill="#ffffff" fill-opacity="1"><g transform="translate(130.163053, 184.477209)"><g><path d="M 10.328125 -13.519531 L 10.328125 -16.898438 L 1.890625 -16.898438 L 1.890625 0 L 5.269531 0 L 5.269531 -6.757812 L 9.570312 -6.757812 L 9.570312 -10.136719 L 5.269531 -10.136719 L 5.269531 -13.519531 Z M 10.328125 -13.519531 "/></g></g></g><g fill="#ffffff" fill-opacity="1"><g transform="translate(145.403055, 184.477209)"><g><path d="M 10.019531 0.234375 C 21.648438 0.234375 21.648438 -17.179688 10.019531 -17.179688 C -1.605469 -17.179688 -1.605469 0.234375 10.019531 0.234375 Z M 10.019531 -3.261719 C 3.261719 -3.261719 3.261719 -13.707031 10.019531 -13.707031 C 16.777344 -13.707031 16.777344 -3.261719 10.019531 -3.261719 Z M 10.019531 -3.261719 "/></g></g></g><g fill="#ffffff" fill-opacity="1"><g transform="translate(169.43158, 184.477209)"><g><path d="M 10.304688 0 L 14.132812 0 L 10.210938 -6.972656 C 15.171875 -8.414062 14.582031 -16.898438 8.554688 -16.898438 L 1.890625 -16.898438 L 1.890625 0 L 5.269531 0 L 5.269531 -6.453125 L 6.902344 -6.453125 Z M 5.269531 -9.738281 L 5.269531 -13.519531 L 8.246094 -13.519531 C 10.539062 -13.519531 10.539062 -9.738281 8.246094 -9.738281 Z M 5.269531 -9.738281 "/></g></g></g><g fill="#ffffff" fill-opacity="1"><g transform="translate(187.931829, 184.477209)"><g><path d="M 8.058594 0 L 8.058594 -13.519531 L 12.265625 -13.519531 L 12.265625 -16.875 L 0.472656 -16.875 L 0.472656 -13.519531 L 4.679688 -13.519531 L 4.679688 0 Z M 8.058594 0 "/></g></g></g><g fill="#ffffff" fill-opacity="1"><g transform="translate(204.872838, 184.477209)"><g><path d="M 0.378906 0 L 4.207031 0 L 4.867188 -1.820312 L 10.46875 -1.820312 L 11.15625 0 L 14.960938 0 L 7.847656 -17.511719 L 7.492188 -17.511719 Z M 6.097656 -4.988281 L 7.679688 -9.382812 L 9.214844 -4.988281 Z M 6.097656 -4.988281 "/></g></g></g><g fill="#ffffff" fill-opacity="1"><g transform="translate(224.318099, 184.477209)"><g><path d="M 1.890625 -16.898438 L 1.890625 0 L 10.632812 0 L 10.632812 -3.378906 L 5.269531 -3.378906 L 5.269531 -16.898438 Z M 1.890625 -16.898438 "/></g></g></g><g fill="#ffffff" fill-opacity="1"><g transform="translate(239.983355, 184.477209)"><g><path d="M 10.632812 0 L 10.632812 -3.378906 L 5.269531 -3.378906 L 5.269531 -6.757812 L 9.714844 -6.757812 L 9.714844 -10.136719 L 5.269531 -10.136719 L 5.269531 -13.519531 L 10.351562 -13.519531 L 10.351562 -16.898438 L 1.890625 -16.898438 L 1.890625 0 Z M 10.632812 0 "/></g></g></g><g fill="#ffffff" fill-opacity="1"><g transform="translate(255.908483, 184.477209)"><g><path d="M 11.839844 0 L 11.839844 -3.402344 L 5.554688 -3.402344 L 11.652344 -16.898438 L 1.417969 -16.898438 L 1.417969 -13.613281 L 6.617188 -13.613281 C 4.585938 -9.097656 2.550781 -4.539062 0.519531 0 Z M 11.839844 0 "/></g></g></g><g fill="#ffffff" fill-opacity="1"><g transform="translate(272.565987, 184.477209)"><g><path d="M 0.378906 0 L 4.207031 0 L 4.867188 -1.820312 L 10.46875 -1.820312 L 11.15625 0 L 14.960938 0 L 7.847656 -17.511719 L 7.492188 -17.511719 Z M 6.097656 -4.988281 L 7.679688 -9.382812 L 9.214844 -4.988281 Z M 6.097656 -4.988281 "/></g></g></g><g fill="#ffffff" fill-opacity="1"><g transform="translate(131.224333, 204.766232)"><g><path d="M 5.390625 -1.3125 C 4.878906 -0.332031 4.164062 0.15625 3.25 0.15625 C 2.332031 0.15625 1.65625 -0.316406 1.21875 -1.265625 C 0.789062 -2.210938 0.578125 -3.613281 0.578125 -5.46875 C 0.578125 -6.925781 0.828125 -8.148438 1.328125 -9.140625 C 1.578125 -9.617188 1.875 -10 2.21875 -10.28125 C 2.570312 -10.570312 2.976562 -10.71875 3.4375 -10.71875 C 3.894531 -10.71875 4.296875 -10.597656 4.640625 -10.359375 C 4.984375 -10.128906 5.265625 -9.785156 5.484375 -9.328125 C 5.921875 -8.441406 6.144531 -7.15625 6.15625 -5.46875 C 6.164062 -3.6875 5.910156 -2.300781 5.390625 -1.3125 Z M 4.671875 -9.421875 C 4.523438 -9.648438 4.347656 -9.828125 4.140625 -9.953125 C 3.929688 -10.078125 3.703125 -10.140625 3.453125 -10.140625 C 3.203125 -10.140625 2.972656 -10.078125 2.765625 -9.953125 C 2.566406 -9.828125 2.382812 -9.648438 2.21875 -9.421875 C 2.0625 -9.191406 1.921875 -8.921875 1.796875 -8.609375 C 1.671875 -8.296875 1.5625 -7.960938 1.46875 -7.609375 C 1.300781 -6.890625 1.21875 -6.164062 1.21875 -5.4375 C 1.21875 -4.707031 1.242188 -4.097656 1.296875 -3.609375 C 1.347656 -3.117188 1.421875 -2.691406 1.515625 -2.328125 C 1.617188 -1.972656 1.738281 -1.675781 1.875 -1.4375 C 2.007812 -1.195312 2.148438 -1.007812 2.296875 -0.875 C 2.585938 -0.613281 2.929688 -0.484375 3.328125 -0.484375 C 4.492188 -0.484375 5.203125 -1.554688 5.453125 -3.703125 C 5.503906 -4.191406 5.53125 -4.6875 5.53125 -5.1875 C 5.53125 -5.695312 5.515625 -6.144531 5.484375 -6.53125 C 5.453125 -6.914062 5.398438 -7.28125 5.328125 -7.625 C 5.265625 -7.976562 5.175781 -8.304688 5.0625 -8.609375 C 4.957031 -8.921875 4.828125 -9.191406 4.671875 -9.421875 Z M 4.671875 -9.421875 "/></g></g></g><g fill="#ffffff" fill-opacity="1"><g transform="translate(137.976484, 204.766232)"><g><path d="M 4.171875 -3.1875 L 4.15625 -1.765625 C 4.15625 -1.296875 4.171875 -0.859375 4.203125 -0.453125 C 4.210938 -0.304688 4.175781 -0.195312 4.09375 -0.125 C 4.007812 -0.0507812 3.921875 -0.015625 3.828125 -0.015625 C 3.742188 -0.015625 3.664062 -0.046875 3.59375 -0.109375 C 3.519531 -0.179688 3.488281 -0.285156 3.5 -0.421875 C 3.519531 -0.554688 3.535156 -0.710938 3.546875 -0.890625 C 3.554688 -1.078125 3.566406 -1.265625 3.578125 -1.453125 C 3.597656 -1.835938 3.609375 -2.15625 3.609375 -2.40625 C 3.609375 -2.664062 3.601562 -2.851562 3.59375 -2.96875 C 3.582031 -3.082031 3.570312 -3.25 3.5625 -3.46875 C 3.550781 -3.695312 3.488281 -3.910156 3.375 -4.109375 C 3.269531 -4.304688 3.117188 -4.40625 2.921875 -4.40625 C 2.722656 -4.40625 2.550781 -4.363281 2.40625 -4.28125 C 2.269531 -4.195312 2.140625 -4.085938 2.015625 -3.953125 C 1.765625 -3.660156 1.597656 -3.320312 1.515625 -2.9375 C 1.503906 -2.8125 1.5 -2.691406 1.5 -2.578125 L 1.5 -2.234375 C 1.5 -1.441406 1.507812 -0.914062 1.53125 -0.65625 C 1.550781 -0.394531 1.535156 -0.222656 1.484375 -0.140625 C 1.429688 -0.0546875 1.34375 -0.015625 1.21875 -0.015625 C 1.101562 -0.015625 1.007812 -0.0507812 0.9375 -0.125 C 0.875 -0.207031 0.851562 -0.347656 0.875 -0.546875 C 0.914062 -1.117188 0.9375 -1.703125 0.9375 -2.296875 C 0.9375 -3.316406 0.921875 -4.066406 0.890625 -4.546875 C 0.867188 -4.835938 0.988281 -4.984375 1.25 -4.984375 C 1.382812 -4.984375 1.472656 -4.941406 1.515625 -4.859375 C 1.554688 -4.773438 1.566406 -4.6875 1.546875 -4.59375 C 1.535156 -4.5 1.53125 -4.421875 1.53125 -4.359375 C 1.53125 -4.296875 1.53125 -4.226562 1.53125 -4.15625 C 1.53125 -4.082031 1.53125 -4.019531 1.53125 -3.96875 C 1.789062 -4.457031 2.132812 -4.78125 2.5625 -4.9375 C 2.695312 -4.976562 2.832031 -5 2.96875 -5 C 3.113281 -5 3.257812 -4.96875 3.40625 -4.90625 C 3.5625 -4.84375 3.691406 -4.738281 3.796875 -4.59375 C 4.046875 -4.28125 4.171875 -3.8125 4.171875 -3.1875 Z M 4.171875 -3.1875 "/></g></g></g><g fill="#ffffff" fill-opacity="1"><g transform="translate(142.933755, 204.766232)"><g><path d="M 1.65625 -8.59375 C 1.65625 -8.0625 1.648438 -7.484375 1.640625 -6.859375 C 1.628906 -6.242188 1.625 -5.285156 1.625 -3.984375 C 1.625 -2.679688 1.644531 -1.476562 1.6875 -0.375 C 1.6875 -0.238281 1.648438 -0.128906 1.578125 -0.046875 C 1.503906 0.0234375 1.414062 0.0625 1.3125 0.0625 C 1.21875 0.0625 1.128906 0.03125 1.046875 -0.03125 C 0.972656 -0.101562 0.941406 -0.257812 0.953125 -0.5 C 0.960938 -0.75 0.972656 -1.113281 0.984375 -1.59375 C 1.003906 -2.082031 1.023438 -2.609375 1.046875 -3.171875 C 1.066406 -4.410156 1.078125 -5.453125 1.078125 -6.296875 C 1.078125 -7.140625 1.070312 -7.769531 1.0625 -8.1875 C 1.0625 -8.601562 1.0625 -8.992188 1.0625 -9.359375 C 1.050781 -10.015625 1.03125 -10.625 1 -11.1875 C 0.988281 -11.320312 1.015625 -11.425781 1.078125 -11.5 C 1.140625 -11.582031 1.222656 -11.625 1.328125 -11.625 C 1.429688 -11.625 1.523438 -11.582031 1.609375 -11.5 C 1.691406 -11.425781 1.726562 -11.273438 1.71875 -11.046875 C 1.707031 -10.816406 1.695312 -10.484375 1.6875 -10.046875 C 1.675781 -9.617188 1.664062 -9.132812 1.65625 -8.59375 Z M 1.65625 -8.59375 "/></g></g></g><g fill="#ffffff" fill-opacity="1"><g transform="translate(145.550458, 204.766232)"><g><path d="M 1.84375 -6.96875 C 1.875 -6.894531 1.882812 -6.804688 1.875 -6.703125 C 1.875 -6.609375 1.851562 -6.523438 1.8125 -6.453125 C 1.769531 -6.390625 1.722656 -6.335938 1.671875 -6.296875 C 1.566406 -6.210938 1.460938 -6.171875 1.359375 -6.171875 C 1.253906 -6.171875 1.171875 -6.179688 1.109375 -6.203125 C 1.046875 -6.234375 0.992188 -6.269531 0.953125 -6.3125 C 0.835938 -6.414062 0.78125 -6.550781 0.78125 -6.71875 C 0.78125 -6.894531 0.820312 -7.019531 0.90625 -7.09375 C 1.050781 -7.21875 1.195312 -7.28125 1.34375 -7.28125 C 1.582031 -7.28125 1.75 -7.175781 1.84375 -6.96875 Z M 1.625 -4.5 C 1.601562 -4.039062 1.582031 -3.585938 1.5625 -3.140625 C 1.539062 -2.703125 1.53125 -2.304688 1.53125 -1.953125 C 1.53125 -1.597656 1.539062 -1.226562 1.5625 -0.84375 C 1.582031 -0.46875 1.582031 -0.253906 1.5625 -0.203125 C 1.539062 -0.148438 1.515625 -0.101562 1.484375 -0.0625 C 1.410156 0.0078125 1.328125 0.046875 1.234375 0.046875 C 1.148438 0.046875 1.066406 0.015625 0.984375 -0.046875 C 0.910156 -0.117188 0.882812 -0.253906 0.90625 -0.453125 C 0.957031 -1.003906 0.984375 -1.566406 0.984375 -2.140625 C 0.984375 -2.710938 0.972656 -3.175781 0.953125 -3.53125 C 0.941406 -3.882812 0.929688 -4.148438 0.921875 -4.328125 C 0.921875 -4.503906 0.929688 -4.617188 0.953125 -4.671875 C 0.972656 -4.722656 1.003906 -4.765625 1.046875 -4.796875 C 1.117188 -4.867188 1.195312 -4.90625 1.28125 -4.90625 C 1.375 -4.90625 1.457031 -4.867188 1.53125 -4.796875 C 1.601562 -4.734375 1.632812 -4.632812 1.625 -4.5 Z M 1.625 -4.5 "/></g></g></g><g fill="#ffffff" fill-opacity="1"><g transform="translate(148.061967, 204.766232)"><g><path d="M 4.171875 -3.1875 L 4.15625 -1.765625 C 4.15625 -1.296875 4.171875 -0.859375 4.203125 -0.453125 C 4.210938 -0.304688 4.175781 -0.195312 4.09375 -0.125 C 4.007812 -0.0507812 3.921875 -0.015625 3.828125 -0.015625 C 3.742188 -0.015625 3.664062 -0.046875 3.59375 -0.109375 C 3.519531 -0.179688 3.488281 -0.285156 3.5 -0.421875 C 3.519531 -0.554688 3.535156 -0.710938 3.546875 -0.890625 C 3.554688 -1.078125 3.566406 -1.265625 3.578125 -1.453125 C 3.597656 -1.835938 3.609375 -2.15625 3.609375 -2.40625 C 3.609375 -2.664062 3.601562 -2.851562 3.59375 -2.96875 C 3.582031 -3.082031 3.570312 -3.25 3.5625 -3.46875 C 3.550781 -3.695312 3.488281 -3.910156 3.375 -4.109375 C 3.269531 -4.304688 3.117188 -4.40625 2.921875 -4.40625 C 2.722656 -4.40625 2.550781 -4.363281 2.40625 -4.28125 C 2.269531 -4.195312 2.140625 -4.085938 2.015625 -3.953125 C 1.765625 -3.660156 1.597656 -3.320312 1.515625 -2.9375 C 1.503906 -2.8125 1.5 -2.691406 1.5 -2.578125 L 1.5 -2.234375 C 1.5 -1.441406 1.507812 -0.914062 1.53125 -0.65625 C 1.550781 -0.394531 1.535156 -0.222656 1.484375 -0.140625 C 1.429688 -0.0546875 1.34375 -0.015625 1.21875 -0.015625 C 1.101562 -0.015625 1.007812 -0.0507812 0.9375 -0.125 C 0.875 -0.207031 0.851562 -0.347656 0.875 -0.546875 C 0.914062 -1.117188 0.9375 -1.703125 0.9375 -2.296875 C 0.9375 -3.316406 0.921875 -4.066406 0.890625 -4.546875 C 0.867188 -4.835938 0.988281 -4.984375 1.25 -4.984375 C 1.382812 -4.984375 1.472656 -4.941406 1.515625 -4.859375 C 1.554688 -4.773438 1.566406 -4.6875 1.546875 -4.59375 C 1.535156 -4.5 1.53125 -4.421875 1.53125 -4.359375 C 1.53125 -4.296875 1.53125 -4.226562 1.53125 -4.15625 C 1.53125 -4.082031 1.53125 -4.019531 1.53125 -3.96875 C 1.789062 -4.457031 2.132812 -4.78125 2.5625 -4.9375 C 2.695312 -4.976562 2.832031 -5 2.96875 -5 C 3.113281 -5 3.257812 -4.96875 3.40625 -4.90625 C 3.5625 -4.84375 3.691406 -4.738281 3.796875 -4.59375 C 4.046875 -4.28125 4.171875 -3.8125 4.171875 -3.1875 Z M 4.171875 -3.1875 "/></g></g></g><g fill="#ffffff" fill-opacity="1"><g transform="translate(153.019238, 204.766232)"><g><path d="M 3.40625 -2.84375 C 3.414062 -3.601562 3.257812 -4.125 2.9375 -4.40625 C 2.800781 -4.519531 2.640625 -4.578125 2.453125 -4.578125 C 2.265625 -4.578125 2.109375 -4.539062 1.984375 -4.46875 C 1.859375 -4.40625 1.75 -4.3125 1.65625 -4.1875 C 1.5625 -4.070312 1.484375 -3.9375 1.421875 -3.78125 C 1.359375 -3.632812 1.304688 -3.484375 1.265625 -3.328125 C 1.222656 -3.160156 1.195312 -2.992188 1.1875 -2.828125 L 2.078125 -2.796875 C 2.671875 -2.796875 3.113281 -2.8125 3.40625 -2.84375 Z M 1.15625 -2.265625 C 1.164062 -1.660156 1.273438 -1.195312 1.484375 -0.875 C 1.710938 -0.539062 2.035156 -0.375 2.453125 -0.375 C 2.835938 -0.375 3.113281 -0.5625 3.28125 -0.9375 C 3.394531 -1.175781 3.535156 -1.296875 3.703125 -1.296875 C 3.773438 -1.296875 3.832031 -1.269531 3.875 -1.21875 C 3.925781 -1.175781 3.953125 -1.09375 3.953125 -0.96875 C 3.953125 -0.851562 3.910156 -0.722656 3.828125 -0.578125 C 3.742188 -0.441406 3.628906 -0.316406 3.484375 -0.203125 C 3.171875 0.0351562 2.789062 0.15625 2.34375 0.15625 C 1.863281 0.15625 1.453125 -0.046875 1.109375 -0.453125 C 0.742188 -0.878906 0.5625 -1.390625 0.5625 -1.984375 C 0.5625 -2.578125 0.613281 -3.054688 0.71875 -3.421875 C 0.820312 -3.796875 0.957031 -4.109375 1.125 -4.359375 C 1.457031 -4.847656 1.875 -5.09375 2.375 -5.09375 C 3.019531 -5.09375 3.472656 -4.84375 3.734375 -4.34375 C 3.910156 -3.988281 4.003906 -3.472656 4.015625 -2.796875 C 4.023438 -2.597656 3.992188 -2.46875 3.921875 -2.40625 C 3.859375 -2.34375 3.726562 -2.3125 3.53125 -2.3125 Z M 1.15625 -2.265625 "/></g></g></g><g fill="#ffffff" fill-opacity="1"><g transform="translate(157.562313, 204.766232)"><g/></g></g><g fill="#ffffff" fill-opacity="1"><g transform="translate(159.955478, 204.766232)"><g><path d="M 0.890625 -3.015625 C 1.046875 -3.015625 1.144531 -2.953125 1.1875 -2.828125 C 1.226562 -2.710938 1.25 -2.519531 1.25 -2.25 C 1.25 -1.976562 1.285156 -1.722656 1.359375 -1.484375 C 1.429688 -1.253906 1.53125 -1.054688 1.65625 -0.890625 C 1.925781 -0.566406 2.296875 -0.40625 2.765625 -0.40625 C 3.242188 -0.40625 3.625 -0.578125 3.90625 -0.921875 C 4.1875 -1.273438 4.328125 -1.78125 4.328125 -2.4375 C 4.328125 -3.300781 3.957031 -4.078125 3.21875 -4.765625 C 3.007812 -4.953125 2.789062 -5.140625 2.5625 -5.328125 C 2.34375 -5.515625 2.128906 -5.707031 1.921875 -5.90625 C 1.710938 -6.113281 1.523438 -6.34375 1.359375 -6.59375 C 0.992188 -7.132812 0.8125 -7.75 0.8125 -8.4375 C 0.8125 -9.132812 1.019531 -9.703125 1.4375 -10.140625 C 1.84375 -10.566406 2.359375 -10.78125 2.984375 -10.78125 C 3.515625 -10.78125 3.953125 -10.601562 4.296875 -10.25 C 4.679688 -9.832031 4.859375 -9.257812 4.828125 -8.53125 C 4.828125 -8.5 4.828125 -8.460938 4.828125 -8.421875 C 4.828125 -8.378906 4.820312 -8.300781 4.8125 -8.1875 C 4.800781 -8.082031 4.753906 -7.988281 4.671875 -7.90625 C 4.585938 -7.820312 4.5 -7.78125 4.40625 -7.78125 C 4.3125 -7.78125 4.234375 -7.820312 4.171875 -7.90625 C 4.109375 -7.988281 4.085938 -8.101562 4.109375 -8.25 C 4.160156 -8.570312 4.1875 -8.8125 4.1875 -8.96875 C 4.1875 -9.132812 4.15625 -9.289062 4.09375 -9.4375 C 4.039062 -9.59375 3.957031 -9.726562 3.84375 -9.84375 C 3.601562 -10.082031 3.296875 -10.203125 2.921875 -10.203125 C 2.503906 -10.203125 2.164062 -10.054688 1.90625 -9.765625 C 1.613281 -9.453125 1.46875 -9.066406 1.46875 -8.609375 C 1.46875 -8.148438 1.519531 -7.773438 1.625 -7.484375 C 1.726562 -7.203125 1.859375 -6.945312 2.015625 -6.71875 C 2.179688 -6.5 2.367188 -6.289062 2.578125 -6.09375 C 2.796875 -5.90625 3.007812 -5.71875 3.21875 -5.53125 C 3.4375 -5.351562 3.648438 -5.164062 3.859375 -4.96875 C 4.078125 -4.78125 4.269531 -4.566406 4.4375 -4.328125 C 4.800781 -3.796875 4.984375 -3.179688 4.984375 -2.484375 C 4.984375 -1.660156 4.769531 -1.007812 4.34375 -0.53125 C 3.925781 -0.0390625 3.367188 0.203125 2.671875 0.203125 C 2.023438 0.203125 1.5 -0.046875 1.09375 -0.546875 C 0.707031 -1.015625 0.515625 -1.539062 0.515625 -2.125 C 0.515625 -2.71875 0.640625 -3.015625 0.890625 -3.015625 Z M 0.890625 -3.015625 "/></g></g></g><g fill="#ffffff" fill-opacity="1"><g transform="translate(165.655689, 204.766232)"><g><path d="M 1.484375 -3.90625 C 1.867188 -4.6875 2.367188 -5.078125 2.984375 -5.078125 C 3.535156 -5.078125 3.910156 -4.753906 4.109375 -4.109375 C 4.171875 -3.878906 4.203125 -3.597656 4.203125 -3.265625 L 4.203125 -2.203125 C 4.203125 -1.410156 4.21875 -0.820312 4.25 -0.4375 C 4.257812 -0.289062 4.222656 -0.179688 4.140625 -0.109375 C 4.054688 -0.0351562 3.960938 0 3.859375 0 C 3.765625 0 3.679688 -0.03125 3.609375 -0.09375 C 3.546875 -0.164062 3.523438 -0.320312 3.546875 -0.5625 C 3.585938 -0.9375 3.609375 -1.34375 3.609375 -1.78125 C 3.609375 -2.226562 3.601562 -2.539062 3.59375 -2.71875 C 3.582031 -2.90625 3.570312 -3.128906 3.5625 -3.390625 C 3.5625 -3.660156 3.507812 -3.90625 3.40625 -4.125 C 3.300781 -4.351562 3.148438 -4.46875 2.953125 -4.46875 C 2.753906 -4.46875 2.578125 -4.414062 2.421875 -4.3125 C 2.265625 -4.207031 2.125 -4.070312 2 -3.90625 C 1.738281 -3.5625 1.578125 -3.171875 1.515625 -2.734375 C 1.523438 -1.679688 1.550781 -0.914062 1.59375 -0.4375 C 1.601562 -0.289062 1.570312 -0.179688 1.5 -0.109375 C 1.425781 -0.0351562 1.328125 0 1.203125 0 C 0.984375 0 0.875 -0.132812 0.875 -0.40625 L 0.96875 -7.703125 C 0.96875 -8.640625 0.941406 -9.804688 0.890625 -11.203125 C 0.878906 -11.347656 0.914062 -11.453125 1 -11.515625 C 1.09375 -11.585938 1.1875 -11.625 1.28125 -11.625 C 1.375 -11.625 1.453125 -11.585938 1.515625 -11.515625 C 1.585938 -11.453125 1.617188 -11.332031 1.609375 -11.15625 C 1.609375 -10.988281 1.601562 -10.738281 1.59375 -10.40625 C 1.582031 -10.082031 1.570312 -9.710938 1.5625 -9.296875 C 1.550781 -8.890625 1.539062 -8.445312 1.53125 -7.96875 C 1.53125 -7.5 1.523438 -7.015625 1.515625 -6.515625 C 1.503906 -6.023438 1.5 -5.53125 1.5 -5.03125 C 1.488281 -4.644531 1.484375 -4.269531 1.484375 -3.90625 Z M 1.484375 -3.90625 "/></g></g></g><g fill="#ffffff" fill-opacity="1"><g transform="translate(170.665557, 204.766232)"><g><path d="M 2.90625 -4.421875 C 2.757812 -4.523438 2.585938 -4.578125 2.390625 -4.578125 C 2.203125 -4.578125 2.023438 -4.523438 1.859375 -4.421875 C 1.703125 -4.316406 1.566406 -4.164062 1.453125 -3.96875 C 1.234375 -3.582031 1.125 -3.050781 1.125 -2.375 C 1.125 -1.707031 1.226562 -1.210938 1.4375 -0.890625 C 1.65625 -0.578125 1.945312 -0.421875 2.3125 -0.421875 C 2.707031 -0.421875 3.019531 -0.644531 3.25 -1.09375 C 3.46875 -1.5 3.578125 -1.992188 3.578125 -2.578125 C 3.578125 -3.484375 3.351562 -4.097656 2.90625 -4.421875 Z M 2.296875 0.140625 C 2.046875 0.148438 1.8125 0.101562 1.59375 0 C 1.382812 -0.113281 1.203125 -0.285156 1.046875 -0.515625 C 0.691406 -0.992188 0.515625 -1.679688 0.515625 -2.578125 C 0.515625 -3.367188 0.703125 -3.992188 1.078125 -4.453125 C 1.429688 -4.890625 1.894531 -5.109375 2.46875 -5.109375 C 2.957031 -5.109375 3.363281 -4.898438 3.6875 -4.484375 C 4.007812 -4.035156 4.171875 -3.421875 4.171875 -2.640625 C 4.171875 -1.773438 3.984375 -1.082031 3.609375 -0.5625 C 3.265625 -0.101562 2.828125 0.128906 2.296875 0.140625 Z M 2.296875 0.140625 "/></g></g></g><g fill="#ffffff" fill-opacity="1"><g transform="translate(175.353274, 204.766232)"><g><path d="M 1.546875 0.140625 C 1.535156 0.429688 1.53125 0.722656 1.53125 1.015625 C 1.53125 1.316406 1.5625 1.992188 1.625 3.046875 C 1.625 3.210938 1.535156 3.320312 1.359375 3.375 C 1.304688 3.394531 1.253906 3.40625 1.203125 3.40625 C 1.160156 3.40625 1.117188 3.394531 1.078125 3.375 C 1.035156 3.363281 1 3.335938 0.96875 3.296875 C 0.894531 3.222656 0.863281 3.097656 0.875 2.921875 C 0.925781 2.328125 0.953125 1.453125 0.953125 0.296875 C 0.953125 -1.765625 0.925781 -3.351562 0.875 -4.46875 C 0.863281 -4.613281 0.894531 -4.726562 0.96875 -4.8125 C 1.039062 -4.90625 1.125 -4.953125 1.21875 -4.953125 C 1.320312 -4.953125 1.40625 -4.914062 1.46875 -4.84375 C 1.539062 -4.769531 1.570312 -4.671875 1.5625 -4.546875 C 1.539062 -4.359375 1.53125 -4.191406 1.53125 -4.046875 C 1.6875 -4.328125 1.890625 -4.5625 2.140625 -4.75 C 2.460938 -4.988281 2.820312 -5.109375 3.21875 -5.109375 C 3.625 -5.109375 3.9375 -4.957031 4.15625 -4.65625 C 4.382812 -4.363281 4.5 -3.984375 4.5 -3.515625 C 4.5 -3.046875 4.445312 -2.644531 4.34375 -2.3125 C 4.25 -1.988281 4.125 -1.695312 3.96875 -1.4375 C 3.8125 -1.175781 3.628906 -0.945312 3.421875 -0.75 C 3.210938 -0.5625 3 -0.40625 2.78125 -0.28125 C 2.34375 -0.0195312 1.929688 0.117188 1.546875 0.140625 Z M 1.53125 -2.875 C 1.519531 -1.726562 1.523438 -0.914062 1.546875 -0.4375 C 1.722656 -0.414062 1.921875 -0.457031 2.140625 -0.5625 C 2.429688 -0.6875 2.671875 -0.820312 2.859375 -0.96875 C 3.046875 -1.125 3.21875 -1.316406 3.375 -1.546875 C 3.71875 -2.054688 3.890625 -2.664062 3.890625 -3.375 C 3.890625 -3.757812 3.8125 -4.046875 3.65625 -4.234375 C 3.5 -4.429688 3.3125 -4.53125 3.09375 -4.53125 C 2.875 -4.53125 2.675781 -4.476562 2.5 -4.375 C 2.320312 -4.269531 2.164062 -4.132812 2.03125 -3.96875 C 1.75 -3.625 1.582031 -3.257812 1.53125 -2.875 Z M 1.53125 -2.875 "/></g></g></g><g fill="#ffffff" fill-opacity="1"><g transform="translate(180.290827, 204.766232)"><g><path d="M 1.546875 0.140625 C 1.535156 0.429688 1.53125 0.722656 1.53125 1.015625 C 1.53125 1.316406 1.5625 1.992188 1.625 3.046875 C 1.625 3.210938 1.535156 3.320312 1.359375 3.375 C 1.304688 3.394531 1.253906 3.40625 1.203125 3.40625 C 1.160156 3.40625 1.117188 3.394531 1.078125 3.375 C 1.035156 3.363281 1 3.335938 0.96875 3.296875 C 0.894531 3.222656 0.863281 3.097656 0.875 2.921875 C 0.925781 2.328125 0.953125 1.453125 0.953125 0.296875 C 0.953125 -1.765625 0.925781 -3.351562 0.875 -4.46875 C 0.863281 -4.613281 0.894531 -4.726562 0.96875 -4.8125 C 1.039062 -4.90625 1.125 -4.953125 1.21875 -4.953125 C 1.320312 -4.953125 1.40625 -4.914062 1.46875 -4.84375 C 1.539062 -4.769531 1.570312 -4.671875 1.5625 -4.546875 C 1.539062 -4.359375 1.53125 -4.191406 1.53125 -4.046875 C 1.6875 -4.328125 1.890625 -4.5625 2.140625 -4.75 C 2.460938 -4.988281 2.820312 -5.109375 3.21875 -5.109375 C 3.625 -5.109375 3.9375 -4.957031 4.15625 -4.65625 C 4.382812 -4.363281 4.5 -3.984375 4.5 -3.515625 C 4.5 -3.046875 4.445312 -2.644531 4.34375 -2.3125 C 4.25 -1.988281 4.125 -1.695312 3.96875 -1.4375 C 3.8125 -1.175781 3.628906 -0.945312 3.421875 -0.75 C 3.210938 -0.5625 3 -0.40625 2.78125 -0.28125 C 2.34375 -0.0195312 1.929688 0.117188 1.546875 0.140625 Z M 1.53125 -2.875 C 1.519531 -1.726562 1.523438 -0.914062 1.546875 -0.4375 C 1.722656 -0.414062 1.921875 -0.457031 2.140625 -0.5625 C 2.429688 -0.6875 2.671875 -0.820312 2.859375 -0.96875 C 3.046875 -1.125 3.21875 -1.316406 3.375 -1.546875 C 3.71875 -2.054688 3.890625 -2.664062 3.890625 -3.375 C 3.890625 -3.757812 3.8125 -4.046875 3.65625 -4.234375 C 3.5 -4.429688 3.3125 -4.53125 3.09375 -4.53125 C 2.875 -4.53125 2.675781 -4.476562 2.5 -4.375 C 2.320312 -4.269531 2.164062 -4.132812 2.03125 -3.96875 C 1.75 -3.625 1.582031 -3.257812 1.53125 -2.875 Z M 1.53125 -2.875 "/></g></g></g><g fill="#ffffff" fill-opacity="1"><g transform="translate(185.22838, 204.766232)"><g><path d="M 1.84375 -6.96875 C 1.875 -6.894531 1.882812 -6.804688 1.875 -6.703125 C 1.875 -6.609375 1.851562 -6.523438 1.8125 -6.453125 C 1.769531 -6.390625 1.722656 -6.335938 1.671875 -6.296875 C 1.566406 -6.210938 1.460938 -6.171875 1.359375 -6.171875 C 1.253906 -6.171875 1.171875 -6.179688 1.109375 -6.203125 C 1.046875 -6.234375 0.992188 -6.269531 0.953125 -6.3125 C 0.835938 -6.414062 0.78125 -6.550781 0.78125 -6.71875 C 0.78125 -6.894531 0.820312 -7.019531 0.90625 -7.09375 C 1.050781 -7.21875 1.195312 -7.28125 1.34375 -7.28125 C 1.582031 -7.28125 1.75 -7.175781 1.84375 -6.96875 Z M 1.625 -4.5 C 1.601562 -4.039062 1.582031 -3.585938 1.5625 -3.140625 C 1.539062 -2.703125 1.53125 -2.304688 1.53125 -1.953125 C 1.53125 -1.597656 1.539062 -1.226562 1.5625 -0.84375 C 1.582031 -0.46875 1.582031 -0.253906 1.5625 -0.203125 C 1.539062 -0.148438 1.515625 -0.101562 1.484375 -0.0625 C 1.410156 0.0078125 1.328125 0.046875 1.234375 0.046875 C 1.148438 0.046875 1.066406 0.015625 0.984375 -0.046875 C 0.910156 -0.117188 0.882812 -0.253906 0.90625 -0.453125 C 0.957031 -1.003906 0.984375 -1.566406 0.984375 -2.140625 C 0.984375 -2.710938 0.972656 -3.175781 0.953125 -3.53125 C 0.941406 -3.882812 0.929688 -4.148438 0.921875 -4.328125 C 0.921875 -4.503906 0.929688 -4.617188 0.953125 -4.671875 C 0.972656 -4.722656 1.003906 -4.765625 1.046875 -4.796875 C 1.117188 -4.867188 1.195312 -4.90625 1.28125 -4.90625 C 1.375 -4.90625 1.457031 -4.867188 1.53125 -4.796875 C 1.601562 -4.734375 1.632812 -4.632812 1.625 -4.5 Z M 1.625 -4.5 "/></g></g></g><g fill="#ffffff" fill-opacity="1"><g transform="translate(187.739889, 204.766232)"><g><path d="M 4.171875 -3.1875 L 4.15625 -1.765625 C 4.15625 -1.296875 4.171875 -0.859375 4.203125 -0.453125 C 4.210938 -0.304688 4.175781 -0.195312 4.09375 -0.125 C 4.007812 -0.0507812 3.921875 -0.015625 3.828125 -0.015625 C 3.742188 -0.015625 3.664062 -0.046875 3.59375 -0.109375 C 3.519531 -0.179688 3.488281 -0.285156 3.5 -0.421875 C 3.519531 -0.554688 3.535156 -0.710938 3.546875 -0.890625 C 3.554688 -1.078125 3.566406 -1.265625 3.578125 -1.453125 C 3.597656 -1.835938 3.609375 -2.15625 3.609375 -2.40625 C 3.609375 -2.664062 3.601562 -2.851562 3.59375 -2.96875 C 3.582031 -3.082031 3.570312 -3.25 3.5625 -3.46875 C 3.550781 -3.695312 3.488281 -3.910156 3.375 -4.109375 C 3.269531 -4.304688 3.117188 -4.40625 2.921875 -4.40625 C 2.722656 -4.40625 2.550781 -4.363281 2.40625 -4.28125 C 2.269531 -4.195312 2.140625 -4.085938 2.015625 -3.953125 C 1.765625 -3.660156 1.597656 -3.320312 1.515625 -2.9375 C 1.503906 -2.8125 1.5 -2.691406 1.5 -2.578125 L 1.5 -2.234375 C 1.5 -1.441406 1.507812 -0.914062 1.53125 -0.65625 C 1.550781 -0.394531 1.535156 -0.222656 1.484375 -0.140625 C 1.429688 -0.0546875 1.34375 -0.015625 1.21875 -0.015625 C 1.101562 -0.015625 1.007812 -0.0507812 0.9375 -0.125 C 0.875 -0.207031 0.851562 -0.347656 0.875 -0.546875 C 0.914062 -1.117188 0.9375 -1.703125 0.9375 -2.296875 C 0.9375 -3.316406 0.921875 -4.066406 0.890625 -4.546875 C 0.867188 -4.835938 0.988281 -4.984375 1.25 -4.984375 C 1.382812 -4.984375 1.472656 -4.941406 1.515625 -4.859375 C 1.554688 -4.773438 1.566406 -4.6875 1.546875 -4.59375 C 1.535156 -4.5 1.53125 -4.421875 1.53125 -4.359375 C 1.53125 -4.296875 1.53125 -4.226562 1.53125 -4.15625 C 1.53125 -4.082031 1.53125 -4.019531 1.53125 -3.96875 C 1.789062 -4.457031 2.132812 -4.78125 2.5625 -4.9375 C 2.695312 -4.976562 2.832031 -5 2.96875 -5 C 3.113281 -5 3.257812 -4.96875 3.40625 -4.90625 C 3.5625 -4.84375 3.691406 -4.738281 3.796875 -4.59375 C 4.046875 -4.28125 4.171875 -3.8125 4.171875 -3.1875 Z M 4.171875 -3.1875 "/></g></g></g><g fill="#ffffff" fill-opacity="1"><g transform="translate(192.69716, 204.766232)"><g><path d="M 1.765625 -0.25 C 1.828125 -0.25 1.941406 -0.25 2.109375 -0.25 L 2.46875 -0.25 C 3.25 -0.25 3.789062 0.0703125 4.09375 0.71875 C 4.1875 0.9375 4.234375 1.179688 4.234375 1.453125 C 4.234375 1.734375 4.191406 1.976562 4.109375 2.1875 C 4.035156 2.40625 3.921875 2.59375 3.765625 2.75 C 3.429688 3.070312 2.945312 3.234375 2.3125 3.234375 C 1.8125 3.234375 1.40625 3.101562 1.09375 2.84375 C 0.78125 2.570312 0.625 2.195312 0.625 1.71875 C 0.625 1.289062 0.734375 0.910156 0.953125 0.578125 C 1.035156 0.453125 1.117188 0.347656 1.203125 0.265625 C 1.023438 0.222656 0.882812 0.128906 0.78125 -0.015625 C 0.632812 -0.203125 0.5625 -0.390625 0.5625 -0.578125 C 0.5625 -0.773438 0.582031 -0.9375 0.625 -1.0625 C 0.664062 -1.195312 0.722656 -1.320312 0.796875 -1.4375 C 0.898438 -1.601562 1.019531 -1.742188 1.15625 -1.859375 C 0.945312 -2.003906 0.78125 -2.207031 0.65625 -2.46875 C 0.5625 -2.675781 0.515625 -2.925781 0.515625 -3.21875 C 0.515625 -3.507812 0.5625 -3.773438 0.65625 -4.015625 C 0.757812 -4.253906 0.894531 -4.453125 1.0625 -4.609375 C 1.226562 -4.773438 1.414062 -4.898438 1.625 -4.984375 C 1.84375 -5.066406 2.078125 -5.109375 2.328125 -5.109375 C 2.503906 -5.109375 2.675781 -5.09375 2.84375 -5.0625 C 2.863281 -5.351562 2.984375 -5.664062 3.203125 -6 C 3.503906 -6.46875 3.851562 -6.703125 4.25 -6.703125 C 4.457031 -6.703125 4.5625 -6.59375 4.5625 -6.375 C 4.5625 -6.25 4.460938 -6.140625 4.265625 -6.046875 C 3.960938 -5.972656 3.71875 -5.8125 3.53125 -5.5625 C 3.375 -5.363281 3.285156 -5.140625 3.265625 -4.890625 C 3.390625 -4.816406 3.5 -4.734375 3.59375 -4.640625 C 3.914062 -4.316406 4.078125 -3.859375 4.078125 -3.265625 C 4.078125 -2.796875 3.921875 -2.398438 3.609375 -2.078125 C 3.273438 -1.734375 2.828125 -1.5625 2.265625 -1.5625 C 1.984375 -1.5625 1.734375 -1.597656 1.515625 -1.671875 C 1.421875 -1.554688 1.34375 -1.40625 1.28125 -1.21875 C 1.195312 -0.96875 1.15625 -0.789062 1.15625 -0.6875 C 1.15625 -0.394531 1.359375 -0.25 1.765625 -0.25 Z M 1.109375 -3.21875 C 1.109375 -2.863281 1.210938 -2.582031 1.421875 -2.375 C 1.628906 -2.164062 1.875 -2.0625 2.15625 -2.0625 C 2.445312 -2.0625 2.671875 -2.09375 2.828125 -2.15625 C 2.984375 -2.226562 3.109375 -2.328125 3.203125 -2.453125 C 3.410156 -2.671875 3.515625 -2.976562 3.515625 -3.375 C 3.515625 -3.9375 3.269531 -4.304688 2.78125 -4.484375 C 2.632812 -4.535156 2.460938 -4.5625 2.265625 -4.5625 C 2.078125 -4.5625 1.90625 -4.519531 1.75 -4.4375 C 1.601562 -4.363281 1.484375 -4.257812 1.390625 -4.125 C 1.203125 -3.882812 1.109375 -3.582031 1.109375 -3.21875 Z M 1.703125 0.3125 C 1.640625 0.351562 1.578125 0.421875 1.515625 0.515625 C 1.304688 0.828125 1.203125 1.179688 1.203125 1.578125 C 1.203125 2.328125 1.632812 2.703125 2.5 2.703125 C 3.269531 2.703125 3.65625 2.300781 3.65625 1.5 C 3.65625 1.144531 3.5625 0.851562 3.375 0.625 C 3.207031 0.414062 3.015625 0.3125 2.796875 0.3125 C 2.585938 0.3125 2.359375 0.3125 2.109375 0.3125 C 1.972656 0.320312 1.835938 0.320312 1.703125 0.3125 Z M 1.703125 0.3125 "/></g></g></g></svg>